<mxfile host="app.diagrams.net" modified="2021-01-16T14:59:29.774Z" agent="5.0 (Windows NT 10.0; Win64; x64) AppleWebKit/537.36 (KHTML, like Gecko) Chrome/87.0.4280.141 Safari/537.36" etag="s4rkKDU8LYuPWoFc1dip" version="14.1.8" type="github">
  <diagram id="zh0De7T3qpqRv8Pg45yA" name="第 1 页">
    <mxGraphModel dx="1052" dy="563" grid="1" gridSize="10" guides="1" tooltips="1" connect="1" arrows="1" fold="1" page="1" pageScale="1" pageWidth="827" pageHeight="1169" math="0" shadow="0">
      <root>
        <mxCell id="0" />
        <mxCell id="1" parent="0" />
        <mxCell id="z72vfLdJfz6Tmv-AaNKN-5" style="edgeStyle=orthogonalEdgeStyle;rounded=0;orthogonalLoop=1;jettySize=auto;html=1;exitX=1;exitY=0.5;exitDx=0;exitDy=0;entryX=0;entryY=0.5;entryDx=0;entryDy=0;" edge="1" parent="1" source="z72vfLdJfz6Tmv-AaNKN-2" target="z72vfLdJfz6Tmv-AaNKN-3">
          <mxGeometry relative="1" as="geometry" />
        </mxCell>
        <mxCell id="z72vfLdJfz6Tmv-AaNKN-2" value="&lt;font style=&quot;font-size: 14px&quot;&gt;Span Id=A&lt;br&gt;Parent&amp;nbsp; Id=null&lt;/font&gt;" style="rounded=0;whiteSpace=wrap;html=1;fillColor=#f5f5f5;strokeColor=#666666;fontColor=#333333;" vertex="1" parent="1">
          <mxGeometry x="27" y="180" width="110" height="60" as="geometry" />
        </mxCell>
        <mxCell id="z72vfLdJfz6Tmv-AaNKN-7" style="edgeStyle=orthogonalEdgeStyle;rounded=0;orthogonalLoop=1;jettySize=auto;html=1;exitX=1;exitY=0.5;exitDx=0;exitDy=0;entryX=0;entryY=0.5;entryDx=0;entryDy=0;" edge="1" parent="1" source="z72vfLdJfz6Tmv-AaNKN-3" target="z72vfLdJfz6Tmv-AaNKN-6">
          <mxGeometry relative="1" as="geometry" />
        </mxCell>
        <mxCell id="z72vfLdJfz6Tmv-AaNKN-3" value="&lt;font style=&quot;font-size: 14px&quot;&gt;Span Id=B&lt;br&gt;Parent&amp;nbsp; Id=A&lt;/font&gt;" style="rounded=0;whiteSpace=wrap;html=1;fillColor=#dae8fc;strokeColor=#6c8ebf;" vertex="1" parent="1">
          <mxGeometry x="187" y="180" width="110" height="60" as="geometry" />
        </mxCell>
        <mxCell id="z72vfLdJfz6Tmv-AaNKN-14" style="edgeStyle=orthogonalEdgeStyle;rounded=0;orthogonalLoop=1;jettySize=auto;html=1;exitX=1;exitY=0.5;exitDx=0;exitDy=0;entryX=0;entryY=0.5;entryDx=0;entryDy=0;" edge="1" parent="1" source="z72vfLdJfz6Tmv-AaNKN-6" target="z72vfLdJfz6Tmv-AaNKN-8">
          <mxGeometry relative="1" as="geometry" />
        </mxCell>
        <mxCell id="z72vfLdJfz6Tmv-AaNKN-15" style="edgeStyle=orthogonalEdgeStyle;rounded=0;orthogonalLoop=1;jettySize=auto;html=1;exitX=1;exitY=0.5;exitDx=0;exitDy=0;" edge="1" parent="1" source="z72vfLdJfz6Tmv-AaNKN-6" target="z72vfLdJfz6Tmv-AaNKN-12">
          <mxGeometry relative="1" as="geometry" />
        </mxCell>
        <mxCell id="z72vfLdJfz6Tmv-AaNKN-6" value="&lt;font style=&quot;font-size: 14px&quot;&gt;Span Id=C&lt;br&gt;Parent&amp;nbsp; Id=B&lt;/font&gt;" style="rounded=0;whiteSpace=wrap;html=1;fillColor=#d5e8d4;strokeColor=#82b366;" vertex="1" parent="1">
          <mxGeometry x="347" y="180" width="110" height="60" as="geometry" />
        </mxCell>
        <mxCell id="z72vfLdJfz6Tmv-AaNKN-10" style="edgeStyle=orthogonalEdgeStyle;rounded=0;orthogonalLoop=1;jettySize=auto;html=1;exitX=1;exitY=0.5;exitDx=0;exitDy=0;" edge="1" parent="1" source="z72vfLdJfz6Tmv-AaNKN-8" target="z72vfLdJfz6Tmv-AaNKN-9">
          <mxGeometry relative="1" as="geometry" />
        </mxCell>
        <mxCell id="z72vfLdJfz6Tmv-AaNKN-8" value="&lt;font style=&quot;font-size: 14px&quot;&gt;Span Id=D&lt;br&gt;Parent&amp;nbsp; Id=C&lt;/font&gt;" style="rounded=0;whiteSpace=wrap;html=1;fillColor=#ffe6cc;strokeColor=#d79b00;" vertex="1" parent="1">
          <mxGeometry x="530" y="109" width="110" height="60" as="geometry" />
        </mxCell>
        <mxCell id="z72vfLdJfz6Tmv-AaNKN-9" value="&lt;font style=&quot;font-size: 14px&quot;&gt;Span Id=E&lt;br&gt;Parent&amp;nbsp; Id=D&lt;/font&gt;" style="rounded=0;whiteSpace=wrap;html=1;fillColor=#f8cecc;strokeColor=#b85450;" vertex="1" parent="1">
          <mxGeometry x="700" y="109" width="110" height="60" as="geometry" />
        </mxCell>
        <mxCell id="z72vfLdJfz6Tmv-AaNKN-11" style="edgeStyle=orthogonalEdgeStyle;rounded=0;orthogonalLoop=1;jettySize=auto;html=1;exitX=1;exitY=0.5;exitDx=0;exitDy=0;" edge="1" parent="1" source="z72vfLdJfz6Tmv-AaNKN-12" target="z72vfLdJfz6Tmv-AaNKN-13">
          <mxGeometry relative="1" as="geometry" />
        </mxCell>
        <mxCell id="z72vfLdJfz6Tmv-AaNKN-12" value="&lt;font style=&quot;font-size: 14px&quot;&gt;Span Id=F&lt;br&gt;Parent&amp;nbsp; Id=C&lt;/font&gt;" style="rounded=0;whiteSpace=wrap;html=1;fillColor=#fff2cc;strokeColor=#d6b656;" vertex="1" parent="1">
          <mxGeometry x="530" y="238" width="110" height="60" as="geometry" />
        </mxCell>
        <mxCell id="z72vfLdJfz6Tmv-AaNKN-13" value="&lt;font style=&quot;font-size: 14px&quot;&gt;Span Id=G&lt;br&gt;Parent&amp;nbsp; Id=F&lt;/font&gt;" style="rounded=0;whiteSpace=wrap;html=1;fillColor=#e1d5e7;strokeColor=#9673a6;" vertex="1" parent="1">
          <mxGeometry x="700" y="238" width="110" height="60" as="geometry" />
        </mxCell>
      </root>
    </mxGraphModel>
  </diagram>
</mxfile>
